<?xml version="1.0" encoding="utf-8"?>
<!-- Generator: Adobe Illustrator 24.1.1, SVG Export Plug-In . SVG Version: 6.00 Build 0)  -->
<svg version="1.1" id="Ebene_1" xmlns="http://www.w3.org/2000/svg" xmlns:xlink="http://www.w3.org/1999/xlink" x="0px" y="0px"
	 viewBox="0 0 383.8 247.5" style="enable-background:new 0 0 383.8 247.5;" xml:space="preserve">
<style type="text/css">
	.st0{fill:#D4D4FF;}
	.st1{fill:#EFEDFF;}
	.st2{fill:#202225;}
</style>
<g id="Ebene_1_1_">
	<g id="Ebene_2_1_">
		<g id="Capa_1">
			<path class="st0" d="M228.4,3.8c-62-15.7-125.8,18.4-147.2,78.7l0,0c-45.6,0.8-82,38.4-81.2,84c0,0.1,0,0.3,0,0.4
				c1,44.3,39.2,80.6,83.5,80.6H258V33.4L228.4,3.8z"/>
			<path class="st1" d="M321.6,123.8c0-56.6-38.4-106-93.2-119.9C162.2,20.8,122.2,88.1,139,154.3c13.9,54.5,62.7,92.8,119,93.2
				h62.9c33.6,0,61.7-26.3,62.8-59.9c1-34.2-25.9-62.8-60.2-63.8C322.9,123.8,322.3,123.8,321.6,123.8L321.6,123.8z"/>
		</g>
	</g>
</g>
<g id="Ebene_2_2_">
	<path class="st2" d="M169.3,222.2l-9.5-2.1c-1.2-0.3-1.9-1.3-1.6-2.2l53.4-148.4c0.3-1,1.6-1.5,2.8-1.2l9.5,2.1
		c1.2,0.3,1.9,1.3,1.6,2.2l-53.4,148.3C171.8,221.9,170.5,222.5,169.3,222.2L169.3,222.2z M140.6,184.5l7-6.3
		c0.7-0.6,0.6-1.6-0.2-2.1l-45.9-30.9l45.9-30.9c0.8-0.5,0.9-1.5,0.2-2.1l-7-6.3c-0.7-0.6-1.9-0.7-2.7-0.1l-54.7,38.3
		c-0.9,0.6-0.9,1.7,0,2.3l54.7,38.3C138.7,185.2,139.9,185.1,140.6,184.5L140.6,184.5z M245.8,184.6l54.7-38.3
		c0.9-0.6,0.9-1.7,0-2.3l-54.7-38.3c-0.8-0.5-2-0.5-2.7,0.1l-7,6.3c-0.7,0.6-0.6,1.6,0.2,2.1l45.9,30.9L236.3,176
		c-0.8,0.5-0.9,1.5-0.2,2.1l7,6.3C243.8,185.1,245,185.2,245.8,184.6z"/>
</g>
</svg>
