<svg id="Capa_1" enable-background="new 0 0 497 497" height="512" viewBox="0 0 497 497" width="512" xmlns="http://www.w3.org/2000/svg"><g><path d="m124.873 421.891h-61.796c0-233.002 188.89-421.891 421.891-421.891 2.07 0 4.14.01 6.2.041v61.816z" fill="#ff748f"/><path d="m255.412 105.16c0-13.429 1.137-26.59 3.289-39.407-117.603 74.875-195.624 206.394-195.624 356.138h61.796l177.872-174.831c-29.716-39.517-47.333-88.65-47.333-141.9z" fill="#fd5f7e"/><path d="m186.669 421.891h-61.796c0-96.185 37.459-186.613 105.465-254.62 68.017-68.017 158.445-105.475 254.63-105.475 2.07 0 4.14.021 6.2.062v61.806z" fill="#f9f097"/><path d="m258.287 142.069c-9.675 7.868-19.01 16.264-27.949 25.202-68.006 68.006-105.465 158.435-105.465 254.62h61.796l145.456-142.459c-38.565-35.342-65.36-83.311-73.838-137.363z" fill="#f9d888"/><path d="m248.465 421.891h-61.796c0-79.676 31.032-154.582 87.369-210.93 56.337-56.337 131.255-87.369 210.93-87.369 2.07 0 4.14.021 6.2.072v61.806z" fill="#60d9a7"/><path d="m278.324 206.778c-1.437 1.382-2.872 2.769-4.286 4.183-56.337 56.348-87.369 131.255-87.369 210.93h61.796l118.859-115.783c-38.376-23.812-69.429-58.302-89-99.33z" fill="#36d39a"/><path d="m310.261 421.891h-61.796c0-63.166 24.595-122.562 69.273-167.23 44.668-44.668 104.054-69.273 167.23-69.273 2.07 0 4.14.031 6.2.082v61.827z" fill="#a4e6ff"/><path d="m312.9 259.654c-41.607 44.055-64.435 101.394-64.435 162.237h61.796l98.747-95.301c-37.463-14.004-70.426-37.232-96.108-66.936z" fill="#81ddfd"/><path d="m491.169 247.297v61.847c-2.06-.113-4.12-.165-6.2-.165-30.156 0-58.51 11.741-79.84 33.071s-33.071 49.684-33.071 79.84h-61.796c0-46.666 18.168-90.541 51.167-123.53 32.999-32.999 76.874-51.177 123.54-51.177 2.069.001 4.14.032 6.2.114z" fill="#bc9bdd"/><path d="m359.081 300.765c-31.508 32.702-48.82 75.582-48.82 121.126h61.796c0-30.156 11.741-58.51 33.071-79.84 4.393-4.393 9.088-8.372 14.031-11.933-21.54-6.945-41.733-16.888-60.078-29.353z" fill="#b08bd7"/><path d="m378.458 390.722c-11.027-11.027-25.161-17.034-39.584-18.059 2.309-68.317-52.403-124.448-120.232-124.448-54.204 0-100.031 35.848-115.078 85.128-4.927-.917-10.001-1.42-15.194-1.42-45.585 0-82.538 36.954-82.538 82.538s36.953 82.539 82.538 82.539h246.066c15.933 0 31.866-6.078 44.022-18.234 24.312-24.313 24.312-63.732 0-88.044z" fill="#fbf1cf"/><path d="m70.29 350.523c0-5.633.219-11.214.644-16.738-37.208 8.004-65.102 41.076-65.102 80.676 0 45.585 36.953 82.539 82.538 82.539h39.493c-35.717-38.412-57.573-89.888-57.573-146.477z" fill="#fae0bd"/><g><g><g><ellipse cx="101.29" cy="427.294" fill="#ff9db0" rx="35.769" ry="28.485"/></g><g><ellipse cx="295.173" cy="427.294" fill="#ff9db0" rx="35.769" ry="28.485"/></g></g></g><g><path d="m122.137 407.374c-4.142 0-7.5-3.358-7.5-7.5v-14.622c0-4.142 3.358-7.5 7.5-7.5s7.5 3.358 7.5 7.5v14.622c0 4.142-3.358 7.5-7.5 7.5z" fill="#423e4f"/></g><g><path d="m274.326 407.374c-4.142 0-7.5-3.358-7.5-7.5v-14.622c0-4.142 3.358-7.5 7.5-7.5s7.5 3.358 7.5 7.5v14.622c0 4.142-3.357 7.5-7.5 7.5z" fill="#423e4f"/></g><g><path d="m198.231 416.078c-9.856 0-19.229-4.269-25.716-11.712-2.721-3.123-2.396-7.86.727-10.582 3.123-2.721 7.859-2.396 10.582.727 3.637 4.174 8.888 6.567 14.408 6.567s10.771-2.394 14.408-6.567c2.721-3.123 7.458-3.448 10.582-.727s3.448 7.459.727 10.582c-6.488 7.443-15.861 11.712-25.718 11.712z" fill="#423e4f"/></g></g></svg>