<svg xmlns="http://www.w3.org/2000/svg" xmlns:xlink="http://www.w3.org/1999/xlink" id="Capa_1" x="0" y="0" version="1.1" viewBox="0 0 512 512" xml:space="preserve" style="enable-background:new 0 0 512 512"><path style="fill:#60c28e" d="M114.781,98.287c0-6.778,3.674-13.324,10.097-16.682c32.445-16.963,59.978-16.963,120.303-16.963	c10.386,0,18.807,8.42,18.807,18.807s-8.42,18.807-18.807,18.807c-61.025,0-79.652,0.541-102.876,12.682	c-9.204,4.813-20.567,1.251-25.38-7.953C115.471,104.203,114.781,101.223,114.781,98.287z"/><path style="fill:#59b382" d="M164.953,82.958c0,7.905,1.25,15.532,3.552,22.725c16.551-3.209,38.171-3.428,76.676-3.428	c10.387,0,18.807-8.42,18.807-18.807s-8.42-18.807-18.807-18.807c-34.677,0-58.511,0.007-78.678,3.229	C165.495,72.755,164.953,77.796,164.953,82.958z"/><path id="SVGCleanerId_0" d="M268.442,161.658c62.314,0,79.107-40.037,132.356-46.767	c7.327-0.926,11.299-9.089,7.526-15.438C367.419,30.624,316.605,5.24,268.442,5.24c-45.594,0-82.556,35.015-82.556,78.209	S222.848,161.658,268.442,161.658z" style="fill:#80d3ae"/><g><path id="SVGCleanerId_0_1_" d="M268.442,161.658c62.314,0,79.107-40.037,132.356-46.767 c7.327-0.926,11.299-9.089,7.526-15.438C367.419,30.624,316.605,5.24,268.442,5.24c-45.594,0-82.556,35.015-82.556,78.209 S222.848,161.658,268.442,161.658z" style="fill:#80d3ae"/></g><g><path style="fill:#60c28e" d="M343.924,93.245c-1.092,0-2.2-0.239-3.249-0.745c-13.392-6.45-67.965-13.578-110.485-6.765 c-4.089,0.653-7.938-2.129-8.592-6.219c-0.656-4.09,2.129-7.937,6.218-8.592c41.469-6.646,100.298-1.124,119.368,8.062 c3.732,1.797,5.3,6.279,3.503,10.011C349.395,91.68,346.715,93.245,343.924,93.245z"/><path style="fill:#60c28e" d="M175.402,504.233c-5.87,3.389-13.377,3.48-19.496-0.403c-30.913-19.617-44.679-43.461-74.842-95.704 c-5.193-8.995-2.111-20.497,6.884-25.69s20.497-2.111,25.69,6.884c30.512,52.849,40.294,68.71,62.421,82.752 c8.77,5.565,11.367,17.186,5.802,25.956C180.18,500.678,177.944,502.765,175.402,504.233z"/></g><path style="fill:#59b382" d="M137.04,468.448c6.846-3.953,12.826-8.848,17.904-14.439c-11.055-12.729-22.054-31.343-41.306-64.69	c-5.193-8.995-16.695-12.077-25.69-6.884s-12.077,16.695-6.884,25.69c17.339,30.031,29.261,50.668,42.136,66.523	C127.932,473.08,132.569,471.029,137.04,468.448z"/><path id="SVGCleanerId_1" d="M153.452,339.474c-31.157-53.966-74.227-48.49-106.68-91.241	c-4.466-5.882-13.521-5.241-17.133,1.201C-9.516,319.274-6.092,375.972,17.99,417.683c22.797,39.486,71.602,53.988,109.009,32.391	C164.405,428.477,176.249,378.96,153.452,339.474z" style="fill:#80d3ae"/><g><path id="SVGCleanerId_1_1_" d="M153.452,339.474c-31.157-53.966-74.227-48.49-106.68-91.241 c-4.466-5.882-13.521-5.241-17.133,1.201C-9.516,319.274-6.092,375.972,17.99,417.683c22.797,39.486,71.602,53.988,109.009,32.391 C164.405,428.477,176.249,378.96,153.452,339.474z" style="fill:#80d3ae"/></g><g><path style="fill:#60c28e" d="M101.011,422.793c-2.18,0-4.342-0.945-5.824-2.77c-26.492-32.592-51.122-86.3-52.702-107.406 c-0.31-4.131,2.788-7.73,6.919-8.04c4.134-0.301,7.73,2.789,8.039,6.919c1.11,14.822,22.222,65.649,49.384,99.066 c2.613,3.214,2.125,7.938-1.089,10.551C104.347,422.243,102.674,422.793,101.011,422.793z"/><path style="fill:#60c28e" d="M496.651,248.762c5.87,3.389,9.702,9.844,9.398,17.085c-1.532,36.58-15.299,60.424-45.461,112.667 c-5.193,8.995-16.695,12.077-25.69,6.884s-12.077-16.695-6.884-25.69c30.513-52.849,39.358-69.251,40.455-95.435 c0.434-10.378,9.2-18.437,19.577-18.003C491.182,246.401,494.108,247.294,496.651,248.762z"/></g><path style="fill:#59b382" d="M484.84,299.876c-6.846-3.953-14.076-6.684-21.457-8.286c-5.496,15.938-16.117,34.771-35.37,68.117	c-5.193,8.995-2.111,20.497,6.884,25.69s20.497,2.111,25.69-6.884c17.339-30.031,29.249-50.675,36.543-69.752	C493.406,305.448,489.311,302.458,484.84,299.876z"/><path id="SVGCleanerId_2" d="M364.94,350.15c-31.157,53.966-4.88,88.527-25.677,138.008	c-2.862,6.808,2.221,14.33,9.606,14.237c80.06-1.011,127.45-32.325,151.532-74.035c22.797-39.486,10.954-89.003-26.453-110.6	S387.737,310.665,364.94,350.15z" style="fill:#80d3ae"/><g><path id="SVGCleanerId_2_1_" d="M364.94,350.15c-31.157,53.966-4.88,88.527-25.677,138.008 c-2.862,6.808,2.221,14.33,9.606,14.237c80.06-1.011,127.45-32.325,151.532-74.035c22.797-39.486,10.954-89.003-26.453-110.6 S387.737,310.665,364.94,350.15z" style="fill:#80d3ae"/></g><path style="fill:#60c28e" d="M392.947,460.982c-2.397,0-4.752-1.147-6.204-3.276c-2.333-3.423-1.45-8.089,1.973-10.422	c12.281-8.372,45.742-52.068,61.101-92.3c1.477-3.87,5.81-5.81,9.682-4.332c3.87,1.478,5.809,5.812,4.332,9.682	c-14.98,39.239-49.177,87.423-66.666,99.345C395.872,460.56,394.402,460.982,392.947,460.982z"/><circle style="fill:#c0e5ff" cx="262.28" cy="283.76" r="168.78"/><path style="fill:#b5e0ff" d="M410.57,364.357c-190.772,57.777-270.307-133.596-244.43-219.359	c-52.443,36.383-81.891,101.089-70.08,168.072c16.187,91.8,103.727,153.096,195.527,136.909	C344.241,440.694,386.851,407.93,410.57,364.357z"/><g><path style="fill:#c0e5ff" d="M162.796,380.867c-3.571,0-6.735-2.56-7.377-6.198c-0.72-4.079,2.004-7.969,6.083-8.688 c2.443-0.432,4.636-1.602,6.343-3.385c4.565-4.77,11.61-6.013,17.532-3.09c2.212,1.091,4.673,1.441,7.117,1.01 c4.081-0.717,7.969,2.006,8.688,6.086c0.719,4.079-2.006,7.969-6.085,8.688c-5.607,0.987-11.263,0.181-16.356-2.332 c-3.986,4.114-9.026,6.806-14.631,7.795C163.667,380.83,163.228,380.867,162.796,380.867z"/><path style="fill:#c0e5ff" d="M242.489,413.056c-3.572,0-6.736-2.561-7.378-6.2c-0.719-4.079,2.006-7.969,6.085-8.688 c2.441-0.43,4.634-1.6,6.341-3.383c4.565-4.769,11.609-6.015,17.532-3.091c2.213,1.092,4.674,1.442,7.117,1.01 c4.08-0.719,7.969,2.006,8.688,6.086c0.719,4.079-2.006,7.969-6.085,8.688c-5.607,0.986-11.263,0.181-16.357-2.332 c-3.987,4.116-9.027,6.808-14.634,7.796C243.359,413.019,242.921,413.056,242.489,413.056z"/></g><g><path style="fill:#7fafe3" d="M372.524,282.273c-3.571,0-6.735-2.56-7.377-6.198c-0.72-4.079,2.003-7.969,6.083-8.689 c2.442-0.431,4.636-1.602,6.342-3.385c4.564-4.77,11.609-6.014,17.53-3.092c2.215,1.094,4.676,1.441,7.118,1.012 c4.074-0.723,7.969,2.004,8.688,6.083c0.72,4.079-2.003,7.969-6.083,8.689c-5.606,0.991-11.262,0.185-16.358-2.331 c-3.986,4.115-9.025,6.807-14.632,7.796C373.395,282.235,372.956,282.273,372.524,282.273z"/><path style="fill:#7fafe3" d="M335.102,204.273c-3.571,0-6.735-2.56-7.377-6.198c-0.72-4.079,2.003-7.969,6.082-8.689 c2.443-0.432,4.636-1.602,6.342-3.385c4.565-4.769,11.611-6.011,17.531-3.092c2.216,1.093,4.678,1.441,7.117,1.012 c4.079-0.722,7.97,2.004,8.689,6.083c0.72,4.079-2.003,7.969-6.083,8.688c-5.608,0.991-11.264,0.185-16.358-2.331 c-3.985,4.114-9.025,6.807-14.631,7.796C335.974,204.235,335.535,204.273,335.102,204.273z"/></g><path style="fill:#60c28e" d="M376.014,314.29c-17.474-11.222-33.626,5.333-37.637,4.065s-11.077-5.466-17.842-6.657	c-6.766-1.191-8.974-10.337,2.427-15.923s16.481-15.422,3.596-20.897c-12.885-5.476-19.788-0.683-21.455,6.763	s-19.211,9.347-39.066,1.525c-19.855-7.823-6.421-36.415,10.614-41.206c17.034-4.792,25.636-8.077,36.39-0.438	c10.754,7.64,19.166-6.955,8.457-16.987c-10.708-10.031-12.375-37.473-16.011-54.712c-3.635-17.238-19.856-16.601-30.023-10.041	c-10.167,6.561-38.488,1.423-49.129-1.469c-10.641-2.891-37.163,8.937-38.252,16.281c-1.089,7.344-11.256,13.904-17.716,14.447	s-17.578-1.668-24.854,4.382c-7.277,6.051-20.446,27.292-20.36,43.577c0.095,18.029,15.812,23.792,15.361,41.517	c-0.451,17.724,20.262,5.343,29.227,8.374c11.915,4.029,10.537,22.577,13.12,30.465s8.53,24.719,23.933,20.811	s-8.598-31.859-4.72-40.29c3.877-8.431,7.31-2.481,23.356,10.781s46.851,5.446,59.906,8.508c13.055,3.062,11.355,6.938,1.527,18.802	c-9.828,11.865,0.475,29.975,16.925,45.29c14.689,13.675,24.441,42.874,28.081,56.309c28.333-12.796,52.065-33.01,69.21-57.794	c2.429-5.102,4.642-10.331,6.377-15.602C415.995,338.231,393.489,325.512,376.014,314.29z"/><path style="fill:#59b382" d="M201.737,301.359c-24.986-34.753-38.293-76.372-40.128-112.289	c-5.481,0.015-11.54,0.565-16.095,4.352c-7.277,6.051-20.446,27.292-20.36,43.577c0.095,18.029,15.812,23.792,15.362,41.517	c-0.451,17.724,20.262,5.343,29.227,8.374c11.915,4.029,10.537,22.577,13.12,30.465s8.53,24.719,23.933,20.811	C220.487,334.694,203.056,312.23,201.737,301.359z M291.422,367.515c3.388,4.669,7.619,9.323,12.368,13.744	c14.689,13.675,24.441,42.874,28.08,56.309c28.334-12.796,52.065-33.01,69.21-57.794c2.241-4.706,4.28-9.523,5.947-14.378	C362.321,378.305,323.812,377.459,291.422,367.515z"/><g><ellipse style="fill:#fff" cx="173.477" cy="231.836" rx="13.757" ry="17.275" transform="matrix(-0.1736 -0.9848 0.9848 -0.1736 -24.723 442.9268)"/><ellipse style="fill:#fff" cx="265.716" cy="215.562" rx="13.757" ry="17.275" transform="matrix(0.1736 0.9848 -0.9848 0.1736 431.8762 -83.5413)"/></g><g><path style="fill:#495059" d="M181.011,224.07c-3.571,0-6.735-2.56-7.377-6.198l-1.06-6.008c-0.719-4.079,2.004-7.97,6.084-8.689 c4.082-0.724,7.97,2.004,8.689,6.083l1.06,6.008c0.719,4.079-2.004,7.97-6.083,8.689 C181.882,224.033,181.443,224.07,181.011,224.07z"/><path style="fill:#495059" d="M253.395,211.307c-3.571,0-6.735-2.559-7.377-6.198l-1.06-6.008 c-0.719-4.079,2.004-7.97,6.083-8.689c4.081-0.721,7.969,2.004,8.689,6.083l1.06,6.008c0.719,4.079-2.004,7.97-6.084,8.689 C254.266,211.27,253.827,211.307,253.395,211.307z"/><path style="fill:#495059" d="M215.796,222.496c-4.618,0-9.139-1.574-12.792-4.524c-3.222-2.603-3.725-7.325-1.123-10.547 c2.603-3.223,7.324-3.724,10.547-1.123c0.71,0.573,2.21,1.479,4.293,1.113c1.543-0.272,2.841-1.165,3.654-2.515 c2.137-3.547,6.746-4.689,10.294-2.553c3.548,2.138,4.691,6.747,2.553,10.295c-3.039,5.044-8.104,8.522-13.896,9.544 C218.153,222.394,216.971,222.496,215.796,222.496z"/></g></svg>