<svg xmlns="http://www.w3.org/2000/svg" xmlns:xlink="http://www.w3.org/1999/xlink" id="Ebene_1" x="0" y="0" version="1.1" viewBox="0 0 383.8 247.5" xml:space="preserve" style="enable-background:new 0 0 383.8 247.5"><style type="text/css">.st0{fill:#d4d4ff}.st1{fill:#efedff}.st2{fill:#202225}</style><g id="Ebene_1_1_"><g id="Ebene_2_1_"><g id="Capa_1"><path d="M228.4,3.8c-62-15.7-125.8,18.4-147.2,78.7l0,0c-45.6,0.8-82,38.4-81.2,84c0,0.1,0,0.3,0,0.4 c1,44.3,39.2,80.6,83.5,80.6H258V33.4L228.4,3.8z" class="st0"/><path d="M321.6,123.8c0-56.6-38.4-106-93.2-119.9C162.2,20.8,122.2,88.1,139,154.3c13.9,54.5,62.7,92.8,119,93.2 h62.9c33.6,0,61.7-26.3,62.8-59.9c1-34.2-25.9-62.8-60.2-63.8C322.9,123.8,322.3,123.8,321.6,123.8L321.6,123.8z" class="st1"/></g></g></g></svg>