<svg class="featuresListAWave-3g7G9X wave-38gW17" xmlns="http://www.w3.org/2000/svg" width="1440" height="267" viewBox="0 0 1440 267"><path d="M1291.53,90.59c-41.91-30.43-76.83.15-115.3,33.84-30.35,26.59-62.93,55.11-102.9,57.11-42.92,2.15-74.89-8.83-106.19-19.59C932.36,150,898.41,138.33,851.2,145.3c-28.55,4.2-60.47,15.82-96.28,28.84-76.74,27.91-171.28,62.29-288.43,44.13-88.16-13.66-128-47.85-159.92-75.27-30.3-26-53.5-45.95-104.17-36.44-49.54,9.29-90.17,23.44-122.86,34.82C44.08,153.72,18,162.8,0,158.9V267H1440V113.61C1432.1,116.71,1362.16,141.85,1291.53,90.59Z" fill="#18191C"></path></svg>